<?xml version="1.0" encoding="UTF-8"?>
<svg width="32px" height="32px" viewBox="0 0 32 32" version="1.1" xmlns="http://www.w3.org/2000/svg" xmlns:xlink="http://www.w3.org/1999/xlink">
    <!-- Generator: Sketch 46.2 (44496) - http://www.bohemiancoding.com/sketch -->
    <title>File2</title>
    <desc>Created with Sketch.</desc>
    <defs></defs>
    <g id="Page-1" stroke="none" stroke-width="1" fill="none" fill-rule="evenodd">
        <g id="File2">
            <path d="M25.9137,30.7016 L5.6627,30.7016 C4.9227,30.7016 4.3227,30.1016 4.3227,29.3626 L4.3227,2.6616 C4.3227,1.9216 4.9227,1.3226 5.6627,1.3226 L20.3227,1.3226 C20.6667,1.3226 20.9957,1.4616 21.2347,1.7096 L27.0067,7.6866 C27.1647,7.8506 27.2527,8.0696 27.2527,8.2976 L27.2527,29.3626 C27.2527,30.1016 26.6527,30.7016 25.9137,30.7016" id="Fill-1" fill="#FFFFFF"></path>
            <path d="M26.9313,29.3628 C26.9313,29.9238 26.4743,30.3808 25.9133,30.3808 L5.6613,30.3808 C5.1013,30.3808 4.6443,29.9238 4.6443,29.3628 L4.6443,2.6618 C4.6443,2.1008 5.1013,1.6438 5.6613,1.6438 L20.3243,1.6438 C20.3983,1.6438 20.4673,1.6708 20.5383,1.6878 L20.5383,6.5758 C20.5383,7.5078 21.2973,8.2648 22.2293,8.2648 L26.9243,8.2648 C26.9253,8.2758 26.9313,8.2858 26.9313,8.2978 L26.9313,29.3628 Z M26.4943,7.6208 L22.2293,7.6208 C21.6533,7.6208 21.1833,7.1528 21.1833,6.5758 L21.1833,2.1188 L26.4943,7.6208 Z M27.2363,7.4638 L21.4673,1.4868 C21.1683,1.1768 20.7523,0.9998 20.3243,0.9998 L5.6613,0.9998 C4.7463,0.9998 3.9993,1.7458 3.9993,2.6618 L3.9993,29.3628 C3.9993,30.2788 4.7463,31.0248 5.6613,31.0248 L25.9133,31.0248 C26.8293,31.0248 27.5763,30.2788 27.5763,29.3628 L27.5763,8.2978 C27.5763,7.9838 27.4543,7.6878 27.2363,7.4638 L27.2363,7.4638 Z" id="Fill-3" fill="#C1C9CD"></path>
            <path d="M14.5358,27.2915 C14.5408,27.5545 14.7118,27.7245 14.9738,27.7245 C15.2538,27.7245 15.4078,27.5545 15.4078,27.2335 L15.4078,24.9915 L16.0898,24.9915 L16.0898,27.2385 C16.0898,27.9405 15.6738,28.3335 14.9818,28.3335 C14.3138,28.3335 13.8758,27.9315 13.8758,27.2915 L14.5358,27.2915 Z" id="Fill-6" fill="#455A64"></path>
            <path d="M17.5573,26.685 L18.0513,26.685 C18.4413,26.685 18.6703,26.486 18.6703,26.12 C18.6703,25.75 18.4463,25.551 18.0533,25.551 L17.5573,25.551 L17.5573,26.685 Z M18.2343,24.992 C18.9053,24.992 19.3643,25.441 19.3643,26.119 C19.3643,26.789 18.8873,27.239 18.2013,27.239 L17.5573,27.239 L17.5573,28.25 L16.8743,28.25 L16.8743,24.992 L18.2343,24.992 Z" id="Fill-8" fill="#455A64"></path>
            <path d="M21.4039,28.3335 C20.4349,28.3335 19.8419,27.6835 19.8419,26.6175 C19.8419,25.5665 20.4399,24.9065 21.3879,24.9065 C22.1589,24.9065 22.7249,25.3535 22.8199,26.0305 L22.1429,26.0305 C22.0409,25.7005 21.7669,25.5085 21.3879,25.5085 C20.8619,25.5085 20.5389,25.9265 20.5389,26.6095 C20.5389,27.3095 20.8789,27.7335 21.4159,27.7335 C21.8629,27.7335 22.1729,27.4695 22.1849,27.0745 L22.1879,27.0175 L21.4799,27.0175 L21.4799,26.5045 L22.8499,26.5045 L22.8499,26.9195 C22.8499,27.7915 22.2939,28.3335 21.4039,28.3335" id="Fill-10" fill="#455A64"></path>
            <path d="M10.1974525,17.9078015 L10.1974525,17.9097084 L10.1974525,17.9078015 Z M8.23427349,21.0475055 L15.7647376,21.0475055 L13.0537296,17.1049984 L12.0358228,18.3311324 C11.8721393,18.5294496 11.6307061,18.6486306 11.3729046,18.6600719 C11.1488628,18.6820012 10.8716239,18.5752151 10.6915721,18.3959669 L10.3018007,18.0107739 L8.23427349,21.0475055 Z M8.00307054,21.3888399 L8.00204752,21.3897933 L8.00307054,21.3888399 Z M16.2455579,22 L7.75243018,22 C7.46496103,22 7.21534369,21.8665173 7.08746595,21.6434105 C6.95242706,21.4098157 6.97493355,21.1113865 7.14680122,20.8673039 L9.60103073,17.3786379 C9.75448401,17.1602984 9.99284811,17.0239553 10.2557647,17.0029795 C10.5309576,16.9877243 10.7601145,17.076395 10.9422124,17.2556432 L11.3237996,17.6322551 L12.416387,16.3136366 C12.5903007,16.1038781 12.8348029,15.9885109 13.1028346,16.0009057 C13.3667743,16.0113936 13.6041154,16.1448763 13.7585917,16.3679832 L13.7596147,16.3679832 L16.858348,20.8701642 C17.0261236,21.1132934 17.046584,21.4098157 16.9105221,21.6434105 C16.7826444,21.8665173 16.533027,22 16.2455579,22 L16.2455579,22 Z" id="Fill-12" fill="#FC612D"></path>
            <path d="M16.7008,14.9448 C16.4228,14.9448 16.1958,15.1708 16.1958,15.4488 C16.1958,15.7268 16.4228,15.9538 16.7008,15.9538 C16.9788,15.9538 17.2048,15.7268 17.2048,15.4488 C17.2048,15.1708 16.9788,14.9448 16.7008,14.9448 M16.7008,16.9838 C15.8538,16.9838 15.1658,16.2958 15.1658,15.4488 C15.1658,14.6028 15.8538,13.9138 16.7008,13.9138 C17.5478,13.9138 18.2358,14.6028 18.2358,15.4488 C18.2358,16.2958 17.5478,16.9838 16.7008,16.9838" id="Fill-14" fill="#FC612D"></path>
        </g>
    </g>
</svg>