<?xml version="1.0" encoding="UTF-8"?>
<svg width="32px" height="32px" viewBox="0 0 32 32" version="1.1" xmlns="http://www.w3.org/2000/svg" xmlns:xlink="http://www.w3.org/1999/xlink">
    <!-- Generator: Sketch 46.2 (44496) - http://www.bohemiancoding.com/sketch -->
    <title>File4</title>
    <desc>Created with Sketch.</desc>
    <defs></defs>
    <g id="Page-1" stroke="none" stroke-width="1" fill="none" fill-rule="evenodd">
        <g id="File4">
            <path d="M25.8943,30.6777 L5.6603,30.6777 C4.9203,30.6777 4.3223,30.0777 4.3223,29.3387 L4.3223,2.6597 C4.3223,1.9207 4.9203,1.3217 5.6603,1.3217 L20.3083,1.3217 C20.6523,1.3217 20.9813,1.4617 21.2193,1.7087 L26.9863,7.6807 C27.1443,7.8447 27.2333,8.0637 27.2333,8.2917 L27.2333,29.3387 C27.2333,30.0777 26.6333,30.6777 25.8943,30.6777" id="Fill-1" fill="#FFFFFF"></path>
            <path d="M26.9119,29.3389 C26.9119,29.8999 26.4549,30.3569 25.8939,30.3569 L5.6599,30.3569 C5.0999,30.3569 4.6429,29.8999 4.6429,29.3389 L4.6429,2.6609 C4.6429,2.1009 5.0999,1.6439 5.6599,1.6439 L20.3089,1.6439 C20.3839,1.6439 20.4529,1.6709 20.5239,1.6879 L20.5239,6.5709 C20.5239,7.5019 21.2819,8.2589 22.2139,8.2589 L26.9049,8.2589 C26.9059,8.2699 26.9119,8.2799 26.9119,8.2919 L26.9119,29.3389 Z M26.4749,7.6149 L22.2139,7.6149 C21.6379,7.6149 21.1679,7.1479 21.1679,6.5709 L21.1679,2.1179 L26.4749,7.6149 Z M27.2169,7.4579 L21.4519,1.4869 C21.1539,1.1769 20.7379,0.9999 20.3089,0.9999 L5.6599,0.9999 C4.7449,0.9999 3.9999,1.7459 3.9999,2.6609 L3.9999,29.3389 C3.9999,30.2539 4.7449,30.9999 5.6599,30.9999 L25.8939,30.9999 C26.8089,30.9999 27.5559,30.2539 27.5559,29.3389 L27.5559,8.2919 C27.5559,7.9779 27.4339,7.6829 27.2169,7.4579 L27.2169,7.4579 Z" id="Fill-3" fill="#C1C9CD"></path>
            <path d="M8.6355,14.6992 C9.1615,15.5662 9.7235,16.3292 10.3075,17.0012 C10.1055,15.7532 9.8055,14.6612 9.5135,13.8752 C9.4405,13.6742 9.3295,13.5662 9.1885,13.5502 C8.9975,13.5272 8.7495,13.6692 8.6145,13.8852 C8.5235,14.0272 8.4065,14.3232 8.6355,14.6992 M11.3895,19.2492 C11.4195,20.0482 11.3975,20.8692 11.3025,21.6882 C11.9515,21.3192 12.6535,20.9762 13.3995,20.6832 C12.7315,20.2862 12.0565,19.8122 11.3895,19.2492 M15.6205,20.8622 C17.0155,21.4402 18.2885,21.7052 19.2475,21.8242 C19.4675,21.8522 19.6425,21.7902 19.7485,21.6402 C19.8835,21.4512 19.8985,21.1542 19.7815,20.9192 C19.6975,20.7462 19.5085,20.5372 19.0955,20.5212 C17.8755,20.4712 16.7095,20.6062 15.6205,20.8622 M10.0995,23.4642 C9.0095,24.2682 8.1595,25.1072 7.6025,25.7932 C7.4745,25.9512 7.3425,26.1882 7.4365,26.4232 C7.5145,26.6192 7.7345,26.7692 7.9805,26.8012 C8.1395,26.8232 8.4425,26.8052 8.6865,26.4702 C9.3535,25.5552 9.8065,24.5312 10.0995,23.4642 M8.0765,27.6452 C8.0105,27.6452 7.9445,27.6402 7.8775,27.6332 C7.3285,27.5652 6.8505,27.2122 6.6575,26.7362 C6.4685,26.2632 6.5745,25.7282 6.9505,25.2652 C7.6655,24.3852 8.8355,23.2682 10.3615,22.2652 C10.5745,20.9702 10.5865,19.6492 10.4825,18.4172 C9.5785,17.5182 8.7095,16.4392 7.9175,15.1362 C7.5835,14.5852 7.5785,13.9492 7.9065,13.4352 C8.2125,12.9502 8.7715,12.6582 9.2775,12.7172 C9.7425,12.7652 10.1155,13.0822 10.3005,13.5852 C10.7175,14.7092 11.1245,16.2862 11.3055,18.0452 C12.3405,19.0292 13.4145,19.7632 14.4545,20.3122 C15.8835,19.8692 17.4585,19.6192 19.1265,19.6832 C19.7625,19.7092 20.2765,20.0242 20.5335,20.5492 C20.7875,21.0632 20.7465,21.6812 20.4335,22.1262 C20.1465,22.5292 19.6685,22.7132 19.1465,22.6562 C17.9195,22.5062 16.2075,22.1282 14.3755,21.2172 C13.1775,21.6192 12.0895,22.1622 11.1375,22.7592 C10.8455,24.2422 10.2915,25.6912 9.3645,26.9632 C9.0435,27.4032 8.5815,27.6452 8.0765,27.6452" id="Fill-6" fill="#FA2A03"></path>
            <path d="M14.7712,26.6641 L15.2652,26.6641 C15.6562,26.6641 15.8832,26.4651 15.8832,26.1001 C15.8832,25.7301 15.6602,25.5311 15.2682,25.5311 L14.7712,25.5311 L14.7712,26.6641 Z M15.4482,24.9721 C16.1192,24.9721 16.5762,25.4211 16.5762,26.0981 C16.5762,26.7681 16.1002,27.2171 15.4152,27.2171 L14.7712,27.2171 L14.7712,28.2271 L14.0892,28.2271 L14.0892,24.9721 L15.4482,24.9721 Z" id="Fill-8" fill="#455A64"></path>
            <path d="M17.8796,27.6455 L18.3716,27.6455 C18.9756,27.6455 19.3126,27.2755 19.3126,26.5865 C19.3126,25.9275 18.9626,25.5515 18.3716,25.5515 L17.8796,25.5515 L17.8796,27.6455 Z M18.4806,24.9685 C19.4486,24.9685 20.0076,25.5555 20.0076,26.5765 C20.0076,27.6345 19.4546,28.2275 18.4806,28.2275 L17.1976,28.2275 L17.1976,24.9685 L18.4806,24.9685 Z" id="Fill-10" fill="#455A64"></path>
            <polygon id="Fill-12" fill="#455A64" points="21 28.256 21 25 23.133 25 23.133 25.583 21.681 25.583 21.681 26.431 23.006 26.431 23.006 26.987 21.681 26.987 21.681 28.256"></polygon>
        </g>
    </g>
</svg>