<?xml version="1.0" encoding="UTF-8"?>
<svg width="32px" height="32px" viewBox="0 0 32 32" version="1.1" xmlns="http://www.w3.org/2000/svg" xmlns:xlink="http://www.w3.org/1999/xlink">
    <!-- Generator: Sketch 46.2 (44496) - http://www.bohemiancoding.com/sketch -->
    <title>File5</title>
    <desc>Created with Sketch.</desc>
    <defs></defs>
    <g id="Page-1" stroke="none" stroke-width="1" fill="none" fill-rule="evenodd">
        <g id="File5">
            <path d="M25.7301,30.48 L5.5831,30.48 C4.8461,30.48 4.2501,29.883 4.2501,29.147 L4.2501,2.583 C4.2501,1.847 4.8461,1.25 5.5831,1.25 L20.1681,1.25 C20.5101,1.25 20.8371,1.389 21.0761,1.635 L26.8171,7.582 C26.9741,7.745 27.0631,7.963 27.0631,8.189 L27.0631,29.147 C27.0631,29.883 26.4661,30.48 25.7301,30.48 Z" id="Fill-1" fill="#FFFFFF"></path>
            <path d="M26.8122,29.147 C26.8122,29.745 26.3272,30.23 25.7302,30.23 L5.5832,30.23 C4.9862,30.23 4.5002,29.745 4.5002,29.147 L4.5002,2.583 C4.5002,1.986 4.9862,1.5 5.5832,1.5 L20.1672,1.5 C20.1712,1.5 20.1752,1.502 20.1792,1.502 L20.1792,6.595 C20.1792,7.483 20.9022,8.205 21.7902,8.205 L26.7882,8.205 L26.7882,8.064 C26.7962,8.105 26.8122,8.146 26.8122,8.189 L26.8122,29.147 Z M26.5892,7.705 L21.7902,7.705 C21.1772,7.705 20.6792,7.207 20.6792,6.595 L20.6792,1.661 C20.7542,1.706 20.8332,1.745 20.8952,1.809 L26.5892,7.705 Z M26.9972,7.408 L21.2542,1.462 C20.9722,1.168 20.5762,1 20.1672,1 L5.5832,1 C4.7092,1 4.0002,1.71 4.0002,2.583 L4.0002,29.147 C4.0002,30.02 4.7092,30.73 5.5832,30.73 L25.7302,30.73 C26.6022,30.73 27.3122,30.02 27.3122,29.147 L27.3122,8.189 C27.3122,7.897 27.2002,7.619 26.9972,7.408 L26.9972,7.408 Z" id="Fill-23" fill="#C1C9CD"></path>
            <path d="M15.5183576,28.4022873 C16.2988428,28.4022873 16.8685072,27.920091 16.9245766,27.2203457 L16.2652012,27.2203457 C16.2001607,27.5769467 15.9086002,27.8057096 15.5206004,27.8057096 C15.009248,27.8057096 14.693017,27.3818254 14.693017,26.7000223 C14.693017,26.0182191 15.009248,25.5965777 15.5183576,25.5965777 C15.9041146,25.5965777 16.197918,25.84104 16.2629584,26.2133404 L16.9223338,26.2133404 C16.8729928,25.5091096 16.2853861,25 15.5183576,25 C14.5786355,25 14,25.6481615 14,26.7000223 C14,27.7541258 14.5808783,28.4022873 15.5183576,28.4022873 Z M17.4022873,27.4199525 C17.4269578,28.0232586 17.9270963,28.4022873 18.6986104,28.4022873 C19.5104943,28.4022873 20.0106328,28.0030736 20.0106328,27.3504266 C20.0106328,26.8480453 19.7302861,26.5676986 19.0798818,26.4308895 L18.6896393,26.3479068 C18.3106105,26.267167 18.1558592,26.1527855 18.1558592,25.9531787 C18.1558592,25.7064736 18.3801365,25.5494795 18.7187953,25.5494795 C19.0462402,25.5494795 19.2839742,25.7199303 19.315373,25.9756064 L19.9523207,25.9756064 C19.9321357,25.3992137 19.4275117,25 18.7143098,25 C17.9674662,25 17.4762988,25.4014564 17.4762988,26.0114908 C17.4762988,26.504901 17.7656166,26.8121609 18.355466,26.9355135 L18.7771074,27.0252244 C19.1740783,27.1104498 19.335558,27.2293168 19.335558,27.435652 C19.335558,27.6801143 19.0866102,27.850565 18.7344947,27.850565 C18.3532232,27.850565 18.088576,27.682357 18.0571771,27.4199525 L17.4022873,27.4199525 Z M22.275834,28.3193047 L23.354608,25.0829826 L22.6257066,25.0829826 L21.9035336,27.5567617 L21.8631637,27.5567617 L21.127534,25.0829826 L20.3627482,25.0829826 L21.4572217,28.3193047 L22.275834,28.3193047 Z" id="CSV" fill="#455A64"></path>
            <path d="M7,24.974 L11,24.974 C11.261783,24.974 11.474,24.761783 11.474,24.5 C11.474,24.238217 11.261783,24.026 11,24.026 L7,24.026 C6.73821703,24.026 6.526,24.238217 6.526,24.5 C6.526,24.761783 6.73821703,24.974 7,24.974 Z" id="Stroke-10" fill="#C1C9CD" fill-rule="nonzero"></path>
            <path d="M7,27.974 L11,27.974 C11.261783,27.974 11.474,27.761783 11.474,27.5 C11.474,27.238217 11.261783,27.026 11,27.026 L7,27.026 C6.73821703,27.026 6.526,27.238217 6.526,27.5 C6.526,27.761783 6.73821703,27.974 7,27.974 Z" id="Stroke-10-Copy" fill="#C1C9CD" fill-rule="nonzero"></path>
            <path d="M7,15.474 L20,15.474 C20.261783,15.474 20.474,15.261783 20.474,15 C20.474,14.738217 20.261783,14.526 20,14.526 L7,14.526 C6.73821703,14.526 6.526,14.738217 6.526,15 C6.526,15.261783 6.73821703,15.474 7,15.474 Z" id="Stroke-19" fill="#C1C9CD" fill-rule="nonzero"></path>
            <path d="M7,18.474 L20,18.474 C20.261783,18.474 20.474,18.261783 20.474,18 C20.474,17.738217 20.261783,17.526 20,17.526 L7,17.526 C6.73821703,17.526 6.526,17.738217 6.526,18 C6.526,18.261783 6.73821703,18.474 7,18.474 Z" id="Stroke-19-Copy" fill="#C1C9CD" fill-rule="nonzero"></path>
            <path d="M7,21.474 L20,21.474 C20.261783,21.474 20.474,21.261783 20.474,21 C20.474,20.738217 20.261783,20.526 20,20.526 L7,20.526 C6.73821703,20.526 6.526,20.738217 6.526,21 C6.526,21.261783 6.73821703,21.474 7,21.474 Z" id="Stroke-19-Copy-2" fill="#C1C9CD" fill-rule="nonzero"></path>
        </g>
    </g>
</svg>