<?xml version="1.0" encoding="UTF-8"?>
<svg width="32px" height="32px" viewBox="0 0 32 32" version="1.1" xmlns="http://www.w3.org/2000/svg" xmlns:xlink="http://www.w3.org/1999/xlink">
    <!-- Generator: Sketch 46.2 (44496) - http://www.bohemiancoding.com/sketch -->
    <title>File6</title>
    <desc>Created with Sketch.</desc>
    <defs></defs>
    <g id="Page-1" stroke="none" stroke-width="1" fill="none" fill-rule="evenodd">
        <g id="File6" fill-rule="nonzero" fill="#000000">
            <path d="M17.9532471,3 L6,3 L6,28.9064941 L26.3251953,28.9064941 L26.3251953,11.4451839 L18.9597741,11.4932595 C18.4049505,11.496881 17.9532471,11.0481163 17.9532471,10.4932808 L17.9532471,3 Z M19.9532471,4.68051846 L19.9532471,9.48673231 L24.833702,9.45487655 L19.9532471,4.68051846 Z M18.6431749,1 C18.9045857,1 19.1556037,1.10236294 19.3424691,1.28516597 L28.0244895,9.7784468 C28.2167987,9.96657536 28.3251953,10.2242545 28.3251953,10.4932808 L28.3251953,29.9064941 C28.3251953,30.4587789 27.8774801,30.9064941 27.3251953,30.9064941 L5,30.9064941 C4.44771525,30.9064941 4,30.4587789 4,29.9064941 L4,2 C4,1.44771525 4.44771525,1 5,1 L18.6431749,1 Z" id="Combined-Shape"></path>
        </g>
    </g>
</svg>