<?xml version="1.0" encoding="UTF-8"?>
<svg width="32px" height="32px" viewBox="0 0 32 32" version="1.1" xmlns="http://www.w3.org/2000/svg" xmlns:xlink="http://www.w3.org/1999/xlink">
    <!-- Generator: Sketch 46.2 (44496) - http://www.bohemiancoding.com/sketch -->
    <title>File1</title>
    <desc>Created with Sketch.</desc>
    <defs></defs>
    <g id="Page-1" stroke="none" stroke-width="1" fill="none" fill-rule="evenodd">
        <g id="File1">
            <path d="M25.48,30.23 L5.333,30.23 C4.596,30.23 4,29.633 4,28.897 L4,2.333 C4,1.597 4.596,1 5.333,1 L19.918,1 C20.26,1 20.587,1.139 20.825,1.385 L26.567,7.332 C26.724,7.495 26.812,7.713 26.812,7.939 L26.812,28.897 C26.812,29.633 26.215,30.23 25.48,30.23" id="Fill-1" fill="#FFFFFF"></path>
            <polygon id="Fill-3" fill="#455A64" points="14.7607 28.0386 14.7607 25.3806 13.7887 25.3806 13.7887 24.8026 16.4087 24.8026 16.4087 25.3806 15.4387 25.3806 15.4387 28.0386"></polygon>
            <polygon id="Fill-5" fill="#455A64" points="17.8467 26.4077 16.8197 24.8027 17.6157 24.8027 18.2907 25.9347 18.3307 25.9347 19.0127 24.8027 19.7717 24.8027 18.7057 26.4197 19.7557 28.0387 18.9847 28.0387 18.2877 26.9417 18.2477 26.9417 17.5437 28.0387 16.8127 28.0387"></polygon>
            <polygon id="Fill-7" fill="#455A64" points="21.1436 28.0386 21.1436 25.3806 20.1716 25.3806 20.1716 24.8026 22.7916 24.8026 22.7916 25.3806 21.8216 25.3806 21.8216 28.0386"></polygon>
            <path d="M7.2002,19.4751 L20.4012,19.4751" id="Fill-13" fill="#FFFFFF"></path>
            <path d="M26.8125,29.147 C26.8125,29.745 26.3275,30.23 25.7305,30.23 L5.5835,30.23 C4.9865,30.23 4.5005,29.745 4.5005,29.147 L4.5005,2.583 C4.5005,1.986 4.9865,1.5 5.5835,1.5 L20.1675,1.5 C20.1715,1.5 20.1755,1.502 20.1795,1.502 L20.1795,6.595 C20.1795,7.483 20.9025,8.205 21.7905,8.205 L26.7885,8.205 L26.7885,8.064 C26.7965,8.105 26.8125,8.146 26.8125,8.189 L26.8125,29.147 Z M26.5885,7.705 L21.7905,7.705 C21.1775,7.705 20.6795,7.207 20.6795,6.595 L20.6795,1.661 C20.7545,1.706 20.8335,1.745 20.8955,1.809 L26.5885,7.705 Z M26.9975,7.408 L21.2545,1.462 C20.9725,1.168 20.5765,1 20.1675,1 L5.5835,1 C4.7095,1 4.0005,1.71 4.0005,2.583 L4.0005,29.147 C4.0005,30.02 4.7095,30.73 5.5835,30.73 L25.7305,30.73 C26.6025,30.73 27.3125,30.02 27.3125,29.147 L27.3125,8.189 C27.3125,7.897 27.2005,7.619 26.9975,7.408 L26.9975,7.408 Z" id="Fill-29" fill="#C1C9CD"></path>
            <path d="M7,24.974 L11,24.974 C11.261783,24.974 11.474,24.761783 11.474,24.5 C11.474,24.238217 11.261783,24.026 11,24.026 L7,24.026 C6.73821703,24.026 6.526,24.238217 6.526,24.5 C6.526,24.761783 6.73821703,24.974 7,24.974 Z" id="Stroke-10" fill="#C1C9CD" fill-rule="nonzero"></path>
            <path d="M7,27.974 L11,27.974 C11.261783,27.974 11.474,27.761783 11.474,27.5 C11.474,27.238217 11.261783,27.026 11,27.026 L7,27.026 C6.73821703,27.026 6.526,27.238217 6.526,27.5 C6.526,27.761783 6.73821703,27.974 7,27.974 Z" id="Stroke-10-Copy" fill="#C1C9CD" fill-rule="nonzero"></path>
            <path d="M7,15.474 L20,15.474 C20.261783,15.474 20.474,15.261783 20.474,15 C20.474,14.738217 20.261783,14.526 20,14.526 L7,14.526 C6.73821703,14.526 6.526,14.738217 6.526,15 C6.526,15.261783 6.73821703,15.474 7,15.474 Z" id="Stroke-19" fill="#C1C9CD" fill-rule="nonzero"></path>
            <path d="M7,18.474 L20,18.474 C20.261783,18.474 20.474,18.261783 20.474,18 C20.474,17.738217 20.261783,17.526 20,17.526 L7,17.526 C6.73821703,17.526 6.526,17.738217 6.526,18 C6.526,18.261783 6.73821703,18.474 7,18.474 Z" id="Stroke-19-Copy" fill="#C1C9CD" fill-rule="nonzero"></path>
            <path d="M7,21.474 L20,21.474 C20.261783,21.474 20.474,21.261783 20.474,21 C20.474,20.738217 20.261783,20.526 20,20.526 L7,20.526 C6.73821703,20.526 6.526,20.738217 6.526,21 C6.526,21.261783 6.73821703,21.474 7,21.474 Z" id="Stroke-19-Copy-2" fill="#C1C9CD" fill-rule="nonzero"></path>
        </g>
    </g>
</svg>