<?xml version="1.0" encoding="UTF-8"?>
<svg width="32px" height="32px" viewBox="0 0 32 32" version="1.1" xmlns="http://www.w3.org/2000/svg" xmlns:xlink="http://www.w3.org/1999/xlink">
    <!-- Generator: Sketch 46.2 (44496) - http://www.bohemiancoding.com/sketch -->
    <title>File3</title>
    <desc>Created with Sketch.</desc>
    <defs></defs>
    <g id="Page-1" stroke="none" stroke-width="1" fill="none" fill-rule="evenodd">
        <g id="File3">
            <path d="M25.8601,30.6299 L5.6581,30.6299 C4.9211,30.6299 4.3221,30.0319 4.3221,29.2939 L4.3221,2.6579 C4.3221,1.9199 4.9211,1.3209 5.6581,1.3209 L20.2831,1.3209 C20.6271,1.3209 20.9551,1.4609 21.1931,1.7079 L26.9511,7.6709 C27.1081,7.8339 27.1971,8.0519 27.1971,8.2799 L27.1971,29.2939 C27.1971,30.0319 26.5981,30.6299 25.8601,30.6299" id="Fill-1" fill="#FFFFFF"></path>
            <path d="M26.8757,29.294 C26.8757,29.854 26.4197,30.31 25.8597,30.31 L5.6577,30.31 C5.0987,30.31 4.6427,29.854 4.6427,29.294 L4.6427,2.658 C4.6427,2.099 5.0987,1.643 5.6577,1.643 L20.2837,1.643 C20.3577,1.643 20.4277,1.669 20.4987,1.687 L20.4987,6.563 C20.4987,7.492 21.2557,8.247 22.1857,8.247 L26.8697,8.247 C26.8697,8.258 26.8757,8.269 26.8757,8.28 L26.8757,29.294 Z M26.4387,7.605 L22.1857,7.605 C21.6097,7.605 21.1417,7.138 21.1417,6.563 L21.1417,2.116 L26.4387,7.605 Z M27.1807,7.448 L21.4247,1.486 C21.1277,1.177 20.7117,1 20.2837,1 L5.6577,1 C4.7447,1 3.9997,1.745 3.9997,2.658 L3.9997,29.294 C3.9997,30.208 4.7447,30.952 5.6577,30.952 L25.8597,30.952 C26.7737,30.952 27.5187,30.208 27.5187,29.294 L27.5187,8.28 C27.5187,7.967 27.3977,7.672 27.1807,7.448 L27.1807,7.448 Z" id="Fill-3" fill="#C1C9CD"></path>
            <polygon id="Fill-6" fill="#455A64" points="16.8865 28.1846 16.8865 26.0106 16.8505 26.0106 16.0245 27.9976 15.5715 27.9976 14.7415 26.0106 14.7055 26.0106 14.7055 28.1846 14.0745 28.1846 14.0745 24.9336 14.8765 24.9336 15.7765 27.1196 15.8175 27.1196 16.7185 24.9336 17.5175 24.9336 17.5175 28.1846"></polygon>
            <path d="M18.8503,26.5576 C18.8503,27.2366 19.1853,27.6696 19.7193,27.6696 C20.2493,27.6696 20.5863,27.2366 20.5863,26.5576 C20.5863,25.8766 20.2493,25.4466 19.7193,25.4466 C19.1933,25.4466 18.8503,25.8766 18.8503,26.5576 M21.2813,26.5576 C21.2813,27.6126 20.6823,28.2676 19.7193,28.2676 C18.7553,28.2676 18.1543,27.6126 18.1543,26.5576 C18.1543,25.5026 18.7633,24.8496 19.7193,24.8496 C20.6793,24.8496 21.2813,25.5056 21.2813,26.5576" id="Fill-8" fill="#455A64"></path>
            <polygon id="Fill-10" fill="#455A64" points="22.7869 28.1846 21.6869 24.9336 22.4569 24.9336 23.1939 27.4176 23.2349 27.4176 23.9609 24.9336 24.6929 24.9336 23.6099 28.1846"></polygon>
            <path d="M7.863,21.3672 L13.631,21.3672 L13.631,19.5772 C13.631,19.4372 13.703,19.3082 13.821,19.2352 C13.941,19.1632 14.087,19.1552 14.211,19.2182 L16.552,20.3882 L16.552,16.5052 L14.174,17.3982 C14.05,17.4452 13.913,17.4292 13.803,17.3512 C13.695,17.2772 13.631,17.1542 13.631,17.0222 L13.631,15.5972 L7.863,15.5972 L7.863,21.3672 Z M14.032,22.1692 L7.462,22.1692 C7.241,22.1692 7.061,21.9892 7.061,21.7672 L7.061,15.1962 C7.061,14.9752 7.241,14.7952 7.462,14.7952 L14.032,14.7952 C14.253,14.7952 14.433,14.9752 14.433,15.1962 L14.433,16.4442 L16.812,15.5512 C16.936,15.5052 17.074,15.5212 17.182,15.5972 C17.291,15.6712 17.355,15.7952 17.355,15.9272 L17.355,21.0382 C17.355,21.1772 17.283,21.3052 17.165,21.3792 C17.045,21.4512 16.899,21.4592 16.775,21.3962 L14.433,20.2252 L14.433,21.7672 C14.433,21.9892 14.253,22.1692 14.032,22.1692 L14.032,22.1692 Z" id="Fill-12" fill="#FC612D"></path>
        </g>
    </g>
</svg>